<?xml version="1.0" encoding="utf-8"?>
<!-- Generator: Adobe Illustrator 25.3.1, SVG Export Plug-In . SVG Version: 6.00 Build 0)  -->
<svg version="1.1" id="Layer_1" xmlns="http://www.w3.org/2000/svg" xmlns:xlink="http://www.w3.org/1999/xlink" x="0px" y="0px"
	 viewBox="0 0 369.5 250.2" style="enable-background:new 0 0 369.5 250.2;" xml:space="preserve" fill="#ffffff">
<g>
	<g transform="matrix(1, 0, 0, 1, 0, 0)">
		<g>
			<path class="st0" d="M0,244.5v-45.2c0-2.5,2-4.5,4.5-4.5c2.5,0,4.5,2,4.5,4.5V240h30.4c2.5,0,4.5,2,4.5,4.5c0,2.5-2,4.5-4.5,4.5
				h-35C2,249,0,247,0,244.5z"/>
			<path class="st0" d="M49.5,221.8c0-15.8,13.2-28.4,28.9-28.4c15.8,0,28.9,12.6,28.9,28.4c0,15.9-13,28.4-28.9,28.4
				C62.6,250.2,49.5,237.6,49.5,221.8z M78.5,241.2c10.9,0,19.9-8.5,19.9-19.4c0-10.9-9.1-19.4-19.9-19.4s-19.9,8.5-19.9,19.4
				C58.5,232.6,67.5,241.2,78.5,241.2z"/>
			<path class="st0" d="M114.2,242.5l23.4-45.1c0.7-1.5,2.3-2.5,4-2.5c1.6,0,3.2,1,3.9,2.5l23.4,45.1c1.1,2.2,0.2,4.9-1.9,6
				c-2.1,1.1-4.9,0.4-6.1-1.9l-19.3-37.4l-19.4,37.4c-1.1,2.2-3.9,3.1-6,1.9C113.9,247.4,113.1,244.6,114.2,242.5z"/>
			<path class="st0" d="M177.2,244.5c0-2.6,1.9-4.5,4.6-4.5h19.9c10,0,16-7.9,16-18.2c0-14.5-10.6-17.9-16-17.9h-19.9
				c-2.7,0-4.6-1.9-4.6-4.5c0-2.5,2-4.5,4.5-4.5h19.9c10,0,25,7.1,25,26.9c0,15.4-10.2,27.2-25,27.2h-19.9
				C179.2,249,177.2,247,177.2,244.5z"/>
			<path class="st0" d="M236,244.5v-45.2c0-2.5,2-4.5,4.5-4.5s4.5,2,4.5,4.5v45.2c0,2.5-2.1,4.5-4.5,4.5S236,247,236,244.5z"/>
			<path class="st0" d="M256.5,244.4v-44.9c0-1.9,1.2-3.6,3-4.3c1.8-0.8,3.8-0.2,5.1,1.2l33,36.1v-33c0-2.6,2.1-4.6,4.6-4.6
				c2.6,0,4.7,2,4.7,4.6v44.9c0,1.9-1.2,3.6-3,4.3c-1.7,0.7-3.8,0.2-5.1-1.2l-32.9-36.3v33.2c0,2.5-2.1,4.6-4.7,4.6
				C258.6,249,256.5,246.9,256.5,244.4z"/>
			<path class="st0" d="M314.6,221.8c0-15.5,12.9-28.4,28.9-28.4c5.8,0,11.4,1.7,16.1,4.8c2.1,1.4,2.7,4.2,1.3,6.3
				c-1.3,2.1-4.1,2.7-6.2,1.3c-3.4-2.2-7.2-3.4-11.2-3.4c-10.9,0-19.9,8.5-19.9,19.4c0,10.9,9,19.4,19.9,19.4
				c8.9,0,15.1-5.7,16.6-12.5h-12.6c-2.5,0-4.5-2-4.5-4.5c0-2.5,2-4.5,4.5-4.5h17.5c2.4,0,4.4,1.9,4.5,4.3
				c0.6,13.9-10.4,26.1-26,26.1C327.4,250.2,314.6,237.3,314.6,221.8z"/>
		</g>
	</g>
	<g>
		<path class="st0" d="M166.5,97.3c-2.5-0.3-5-0.6-7.4-0.9c-2.4-0.3-4.8-0.6-7.2-0.9c-0.5-0.1-0.6-0.2-0.7-0.6
			c-0.6-4.8-1.2-9.6-1.8-14.4c-0.1-0.5,0.2-0.8,0.5-1c9.8-9.8,19.7-19.6,29.5-29.4c11-11,22-22,33-33.1c3.9-4,8.4-7.1,13.3-9.5
			c6.5-3.2,13.4-5.5,20.4-7.3c0.2-0.1,0.8-0.4,0.6,0.3c-2.3,8.9-5.3,17.6-10.1,25.5c-1.5,2.5-3.3,4.8-5.4,6.9
			c-21.3,21.3-42.6,42.6-64,63.9C167,97.1,166.8,97.3,166.5,97.3z"/>
		<path class="st0" d="M194,29.3c-1.3,1.3-2.6,2.6-3.9,3.9c-5.3,5.3-10.6,10.6-15.9,15.9c-15.8,15.8-31.6,31.5-47.3,47.3
			c-0.5,0.5-0.5,0.5-0.7-0.2c-1-3.9-2.1-7.8-3.1-11.7c-0.1-0.5,0-0.8,0.4-1.2c10.8-10.8,21.6-21.6,32.4-32.4
			c4.2-4.3,8.5-8.5,12.7-12.7c2.6-2.7,5.9-4.3,9.3-5.5c4.6-1.6,9.3-2.7,14.1-3.3c0.7-0.1,1.4-0.2,2-0.2
			C193.9,29.2,194,29.3,194,29.3z"/>
		<path class="st0" d="M217.5,52.8c-0.2,2.1-0.5,4.1-0.9,6.1c-0.7,4-1.8,8-3.3,11.8c-1.3,3-2.9,5.6-5.3,7.9
			c-14.9,14.9-29.8,29.7-44.6,44.6c-0.4,0.4-0.8,0.5-1.3,0.4c-3.9-1.1-7.9-2.1-11.8-3.2c-0.1,0-0.2-0.1-0.3-0.1
			C172.5,97.9,195,75.4,217.5,52.8z"/>
		<path class="st0" d="M166.9,34.3c0,0.3-0.1,0.4-0.3,0.5c-5.1,5.1-10.3,10.3-15.4,15.4c-1.8,1.8-3.5,3.5-5.3,5.2
			c-0.5,0.5-0.5,0.5-0.7-0.2c-1.1-4-2.1-7.9-3.2-11.9c-0.1-0.4,0-0.7,0.3-0.9c6.1-6.1,12.2-12.2,18.3-18.3c0.8-0.8,1.6-1.5,2.3-2.3
			c0.4-0.4,0.5-0.4,0.7,0.2c1,3.9,2.1,7.7,3.1,11.5C166.8,33.8,166.8,34.1,166.9,34.3z"/>
		<path class="st0" d="M203.7,104.7c-1.9-0.5-3.5-0.9-5.3-1.4c-2.3-0.6-4.7-1.3-7-1.9c-0.7-0.2-0.7-0.2-0.2-0.7c4-4,8-8,11.9-11.9
			c2.9-2.9,5.8-5.8,8.7-8.7c0.3-0.3,0.5-0.4,1-0.3c3.9,1.1,7.9,2.1,11.8,3.2c0.7,0.2,0.7,0.2,0.2,0.7c-6.9,6.9-13.7,13.7-20.6,20.6
			C204,104.5,203.8,104.7,203.7,104.7z"/>
		<path class="st0" d="M171.8,29.4c-0.4-1.6-0.9-3.3-1.4-5c-0.7-2.4-1.3-4.9-2-7.3c-0.1-0.3-0.1-0.6,0.1-0.8
			c2.1-2.1,4.1-4.2,6.3-6.2c2.3-2.1,5.1-3.4,7.9-4.4c4.7-1.8,9.6-2.8,14.6-3.4c0.3,0,0.7-0.1,1-0.1c0.3,0,0.6-0.1,0.9-0.1
			C190.1,11.1,180.9,20.2,171.8,29.4z"/>
		<path class="st0" d="M243.2,49c-0.1,1.3-0.3,2.6-0.5,3.9c-0.7,4.8-1.8,9.5-3.7,14c-1.3,3.1-3,5.9-5.5,8.2c-1,1-2,2-3,3
			c-0.3,0.3-0.5,0.3-0.9,0.2c-4-1.1-8-2.1-12-3.2c-0.7-0.2-0.3-0.4-0.1-0.6c2.9-2.9,5.9-5.9,8.8-8.8c5.4-5.4,10.8-10.8,16.1-16.1
			C242.7,49.3,242.8,49,243.2,49z"/>
	</g>
</g>
</svg>
